<?xml version="1.0" encoding="UTF-8" standalone="no"?>
<svg
   xmlns:dc="http://purl.org/dc/elements/1.1/"
   xmlns:cc="http://creativecommons.org/ns#"
   xmlns:rdf="http://www.w3.org/1999/02/22-rdf-syntax-ns#"
   xmlns:svg="http://www.w3.org/2000/svg"
   xmlns="http://www.w3.org/2000/svg"
   viewBox="0 0 480 600"
   height="600"
   width="480"
   xml:space="preserve"
   id="svg2"
   version="1.1"><metadata
     id="metadata8"><rdf:RDF><cc:Work
         rdf:about=""><dc:format>image/svg+xml</dc:format><dc:type
           rdf:resource="http://purl.org/dc/dcmitype/StillImage" /></cc:Work></rdf:RDF></metadata><defs
     id="defs6" /><g
     transform="matrix(1.3333333,0,0,-1.3333333,0,600)"
     id="g10"><g
       transform="translate(0,185.30017)"
       id="g12"><path
         id="path14"
         style="fill:#d5ae62;fill-opacity:1;fill-rule:evenodd;stroke:none"
         d="m 1.66151,44.197433 c 0,20.247727 16.117751,36.661805 36,36.661805 h 134.69912 c 3.7603,0 6.8086,-3.104355 6.8086,-6.933777 v 0 c 0,-3.829422 3.04831,-6.933777 6.80861,-6.933777 h 136.36072 c 19.88226,0 35.99994,-16.414032 35.99994,-36.661758 V -147.1788 c 0,-20.24774 -16.11774,-36.66175 -36,-36.66175 H 37.661526 c -19.88225,0 -36.000016,16.41401 -36.000016,36.66175 V 14.610153 Z" /></g><g
       transform="translate(0,122.53137)"
       id="g16"><path
         id="path18"
         style="fill:#ffffff;fill-opacity:1;fill-rule:evenodd;stroke:none"
         d="m 13.292295,290.80682 c 0,20.24775 16.117749,36.66181 35.999999,36.66181 H 310.7077 c 19.88227,0 35.99997,-16.41403 35.99997,-36.66174 V 36.661804 c 0,-20.247742 -16.1177,-36.661835 -35.99997,-36.661835 H 49.292267 c -19.88225,0 -35.999972,16.414032 -35.999972,36.661774 z" /></g><g
       transform="translate(0,339.34277)"
       id="g20"><path
         id="path22"
         style="fill:#000000;fill-opacity:1;fill-rule:evenodd;stroke:none"
         d="m 51.581188,-13.244659 c 0,2.024772 1.611775,3.666168 3.599999,3.666168 H 304.81836 c 1.98822,0 3.6,-1.641396 3.6,-3.666168 0,-2.024773 -1.61178,-3.666176 -3.6,-3.666176 H 55.181187 c -1.988224,0 -3.599999,1.641403 -3.599999,3.666176 z m 0.618767,-52.074524 c 0,2.02478 1.611774,3.666183 3.599998,3.666183 H 305.4371 c 1.98822,0 3.60001,-1.641403 3.60001,-3.666183 0,-2.024781 -1.61179,-3.666169 -3.60001,-3.666169 H 55.799953 c -1.988224,0 -3.599998,1.641388 -3.599998,3.666169 z M 51.581142,38.005699 c 0,2.024773 1.611775,3.666176 3.599999,3.666176 H 304.8183 c 1.98822,0 3.6,-1.641403 3.6,-3.666176 0,-2.024772 -1.61178,-3.666176 -3.6,-3.666176 H 55.181141 c -1.988224,0 -3.599999,1.641404 -3.599999,3.666176 z" /></g><g
       transform="translate(0,206.70972)"
       id="g24"><path
         id="path26"
         style="fill:#f4c873;fill-opacity:1;fill-rule:evenodd;stroke:none"
         d="m 0,-17.841339 c 0,3.8479 0.582098,7.557312 1.66151,11.041946 4.600492,14.851624 18.234667,25.619782 34.338486,25.619782 H 176.54173 c 4.81581,0 8.71981,3.975754 8.71981,8.880096 v 0 c 0,4.904343 3.904,8.880097 8.71981,8.880097 H 324 c 19.88226,0 36,-16.414017 36,-36.661743 V -170.04797 c 0,-20.24774 -16.11774,-36.66175 -36,-36.66175 H 36.000008 C 16.117758,-206.70972 0,-190.29568 0,-170.04794 Z" /></g><g
       transform="translate(0,412.95801)"
       id="g28"><path
         id="path30"
         d="m 178.76759,-2.618492 c 0,-0.841622 1.02875,-1.22826 1.56562,-0.58841 l 4.57412,5.4516 c 0.29183,0.347801 0.28318,0.862606 -0.0202,1.200035 l -1.5554,1.730207 c -0.15014,0.167004 -0.23342,0.385214 -0.23342,0.611633 v 2.170836 c 0,0.841619 1.02877,1.228258 1.56563,0.588407 l 4.28215,-5.103609 c 0.2843,-0.338844 0.2843,-0.837974 0,-1.176819 l -12.18925,-14.527549 c -0.31823,-0.379273 -0.92801,-0.15009 -0.92801,0.348778 v 22.728252 c 0,0.215736 0.0756,0.424393 0.21322,0.588409 l 1.15988,1.38238 c 0.53687,0.63985 1.56563,0.253212 1.56563,-0.588408 V -2.618492 Z m 0.82427,16.996031 c 0,0.841619 -1.02878,1.228258 -1.56565,0.588407 L 173.4521,9.514353 c -0.29182,-0.347803 -0.28317,-0.862612 0.0202,-1.200039 l 1.55542,-1.730209 c 0.15014,-0.167004 0.23339,-0.38521 0.23339,-0.61163 V 3.80164 c 0,-0.841622 -1.02875,-1.22826 -1.56562,-0.58841 l -4.28213,5.103611 c -0.2843,0.338846 -0.2843,0.837967 0,1.176813 l 12.18922,14.527552 c 0.31823,0.379272 0.92803,0.150093 0.92803,-0.348776 V 0.944176 c 0,-0.215737 -0.0756,-0.424389 -0.21324,-0.588406 l -1.15987,-1.382378 c -0.53687,-0.63985 -1.56561,-0.253219 -1.56561,0.588402 v 14.815745 z" /></g></g></svg>