<svg width="47" height="33" viewBox="0 0 47 33" fill="none" xmlns="http://www.w3.org/2000/svg">
<path d="M13.0479 4.70591C7.46191 7.29318 2.68066 9.49765 2.42285 9.60325C1.88769 9.82106 1.66504 9.94646 1.31738 10.2402C0.375975 11.019 -0.1084 12.2037 0.0205063 13.405C0.125975 14.3917 0.48535 15.0748 1.24316 15.7183L1.66504 16.078L1.41113 16.276C0.934569 16.6423 0.512694 17.1902 0.278319 17.7479C-0.0732437 18.5795 -0.0888687 19.6157 0.243163 20.4771C0.461913 21.0513 0.942382 21.6684 1.44629 22.0182L1.69238 22.1898L1.53223 22.3086C0.786132 22.8366 0.278319 23.6154 0.0751938 24.5362C-0.00293118 24.8926 -0.0107437 25.5823 0.0595688 25.9552C0.333006 27.4237 1.4541 28.4897 3.09473 28.8428C3.26269 28.8791 4.28613 29.0705 5.37207 29.2685C7.14551 29.5952 15.4307 31.133 22.7549 32.4927C24.9697 32.9052 25.5518 33.0042 25.7236 32.991C25.9268 32.9778 26.5518 32.6841 35.8994 28.2389C43.7197 24.5197 45.8838 23.4768 45.9736 23.3844C46.1416 23.2095 46.165 22.929 46.0244 22.731C45.8369 22.4571 45.4346 22.3614 45.0869 22.5099C44.9971 22.5495 40.583 24.6451 35.2744 27.1696C29.9697 29.6942 25.5986 31.7634 25.5635 31.77C25.5283 31.7799 23.29 31.374 20.583 30.8723C17.8799 30.3707 14.3486 29.714 12.7354 29.417C11.126 29.1167 8.56738 28.6415 7.05176 28.361C5.53613 28.0805 4.05566 27.8066 3.75879 27.7538C3.00098 27.6185 2.64551 27.4732 2.22754 27.1135C1.73926 26.701 1.50879 26.2654 1.42676 25.6021C1.35254 25.0213 1.46191 24.49 1.75879 23.9751C2.10644 23.3679 2.66113 22.9653 3.29394 22.8531L3.55176 22.8069L6.30566 23.3184C7.82129 23.5989 10.8564 24.1633 13.0479 24.5692C21.8135 26.1961 24.2119 26.6416 24.8838 26.767C25.3213 26.8495 25.6455 26.8957 25.7432 26.8858C25.8604 26.8759 28.3604 25.7011 35.8369 22.1469C41.3018 19.5464 45.8135 17.3981 45.8604 17.3717C45.9072 17.3486 45.9854 17.2661 46.0322 17.1902C46.1455 17.0219 46.1338 16.7182 46.0088 16.573C45.8057 16.3387 45.4619 16.2529 45.1689 16.3585C45.0752 16.3948 40.6338 18.5003 35.2939 21.0414C28.7588 24.1468 25.5557 25.6549 25.4893 25.6516C25.4346 25.6483 23.4424 25.282 21.0557 24.8398C18.6729 24.3943 13.7666 23.4867 10.1572 22.8201C6.54785 22.1535 3.4541 21.5727 3.28223 21.5298C2.36426 21.3021 1.72754 20.6982 1.48535 19.8269C1.39551 19.5101 1.39551 18.8501 1.48144 18.5168C1.66113 17.8271 2.10644 17.2496 2.7041 16.9295C2.96582 16.7875 3.37988 16.6852 3.60644 16.7083C3.76269 16.7215 5.51269 17.045 13.1377 18.464C13.7666 18.5828 14.3447 18.6785 14.4189 18.6785C14.5869 18.6785 14.8291 18.5762 14.9346 18.464C15.1885 18.1901 15.1104 17.771 14.7744 17.5928C14.6924 17.5499 13.4854 17.3123 11.1729 16.8833C9.25879 16.5268 7.01269 16.111 6.17285 15.9559C5.33691 15.7975 4.32519 15.6127 3.93457 15.5434C2.98144 15.3718 2.67285 15.2497 2.22754 14.8702C1.73926 14.4577 1.51269 14.0287 1.42676 13.3654C1.37988 12.999 1.41504 12.5931 1.53223 12.2268C1.62207 11.9331 1.90332 11.4612 2.11816 11.2467C2.43848 10.92 2.97363 10.6263 3.24707 10.6263C3.30957 10.6263 4.05957 10.7517 4.90723 10.9068C23.3135 14.2465 25.5986 14.6557 25.7432 14.6425C25.8604 14.6326 28.3096 13.4809 35.833 9.90686C41.2939 7.30639 45.8018 5.16133 45.8525 5.13162C45.9932 5.05572 46.1143 4.84452 46.1143 4.67621C46.1143 4.42541 45.9932 4.2439 45.7549 4.1383C45.7002 4.1152 44.2158 3.82809 42.4541 3.50138C40.6963 3.17467 37.2197 2.52785 34.7275 2.06584C32.2354 1.60383 28.7119 0.950409 26.8916 0.6138C25.0322 0.267288 23.5049 -1.90735e-05 23.3955 -1.90735e-05C23.2158 -1.90735e-05 22.6455 0.260689 13.0479 4.70591Z" fill="#FCFCFC"/>
<path d="M45.1182 10.2534C45.0557 10.2798 40.626 12.3852 35.2784 14.9263L25.5557 19.5464L25.1807 19.4804C24.9737 19.4441 23.9034 19.2461 22.7979 19.0415C20.9776 18.7049 20.7784 18.6719 20.6416 18.7082C20.0205 18.8666 19.9229 19.5497 20.4893 19.7939C20.6924 19.8797 25.4112 20.7609 25.6768 20.7642C25.7862 20.7642 25.919 20.7312 26.0674 20.6652C26.1885 20.6091 30.6924 18.4706 36.0752 15.913C43.794 12.24 45.8838 11.2335 45.9737 11.1411C46.1377 10.9728 46.1612 10.6923 46.0323 10.4943C45.8565 10.2303 45.4229 10.1181 45.1182 10.2534Z" fill="#FCFCFC"/>
<path d="M16.0752 18.0548C16.0752 20.5266 16.0869 21.1536 16.126 21.1338C16.1494 21.1173 16.5244 20.9226 16.9502 20.6982L17.7275 20.289L17.9072 20.4606C18.6025 21.1173 19.4971 21.9423 19.5244 21.9423C19.54 21.9456 19.5518 20.4771 19.5518 18.6851V15.4213L17.8643 15.1837C16.9346 15.055 16.1494 14.9494 16.126 14.9494C16.0869 14.9494 16.0752 15.5929 16.0752 18.0548Z" fill="#FCFCFC"/>
</svg>
