<svg width="46" height="81" viewBox="0 0 46 81" fill="none" xmlns="http://www.w3.org/2000/svg">
<path d="M22.1447 59.2641C22.1447 61.1224 24.458 61.9762 25.6653 60.5633L35.9508 48.5259C36.607 47.758 36.5876 46.6212 35.9055 45.8762L32.4079 42.0558C32.0703 41.687 31.8831 41.2052 31.8831 40.7053V35.9119C31.8831 34.0536 34.1964 33.1999 35.4036 34.6127L45.0326 45.8818C45.6719 46.6299 45.6719 47.732 45.0326 48.4802L17.6234 80.5578C16.9078 81.3953 15.5366 80.8892 15.5366 79.7877V29.6025C15.5366 29.1262 15.7066 28.6654 16.0161 28.3033L18.6242 25.2509C19.8314 23.8381 22.1447 24.6918 22.1447 26.5501V59.2641Z" fill="url(#paint0_linear_116_320)"/>
<path d="M23.9982 21.736C23.9982 19.8776 21.6849 19.0239 20.4777 20.4367L10.1921 32.4741C9.53591 33.2421 9.55537 34.3788 10.2375 35.1239L13.735 38.9443C14.0726 39.313 14.2599 39.7948 14.2599 40.2948V45.0881C14.2599 46.9464 11.9466 47.8002 10.7393 46.3873L1.11034 35.1183C0.471033 34.3701 0.471034 33.268 1.11034 32.5198L28.5196 0.442225C29.2351 -0.395225 30.6063 0.110814 30.6063 1.21234V51.3975C30.6063 51.8739 30.4363 52.3346 30.1269 52.6968L27.5187 55.7491C26.3115 57.162 23.9982 56.3082 23.9982 54.4499V21.736Z" fill="url(#paint1_linear_116_320)"/>
<defs>
<linearGradient id="paint0_linear_116_320" x1="15.3033" y1="-2" x2="15.3033" y2="59.8693" gradientUnits="userSpaceOnUse">
<stop stop-color="#F2C561"/>
<stop offset="1" stop-color="#B57927"/>
</linearGradient>
<linearGradient id="paint1_linear_116_320" x1="15.3033" y1="-2" x2="15.3033" y2="59.8693" gradientUnits="userSpaceOnUse">
<stop stop-color="#F2C561"/>
<stop offset="1" stop-color="#B57927"/>
</linearGradient>
</defs>
</svg>
