<svg width="47" height="85" viewBox="0 0 47 85" fill="none" xmlns="http://www.w3.org/2000/svg">
<path d="M22.1446 61.2641C22.1446 63.1224 24.4579 63.9761 25.6651 62.5633L35.9507 50.5259C36.6069 49.7579 36.5874 48.6212 35.9053 47.8761L32.4077 44.0557C32.0701 43.687 31.8829 43.2052 31.8829 42.7052V37.9119C31.8829 36.0536 34.1962 35.1998 35.4034 36.6127L45.0324 47.8817C45.6717 48.6299 45.6717 49.732 45.0324 50.4802L44.7514 50.8091L41.969 54.0654L38.1432 58.5427L33.2741 64.2412L26.6659 71.9749L21.7968 77.6734L17.6232 82.5578C16.9076 83.3952 15.5364 82.8892 15.5364 81.7877V63.4272V31.6025C15.5364 31.1261 15.7064 30.6654 16.0159 30.3032L18.624 27.2509C19.8313 25.8381 22.1446 26.6918 22.1446 28.5501V61.2641Z" fill="url(#paint0_linear_43_250)"/>
<path d="M23.998 23.7359C23.998 21.8776 21.6847 21.0239 20.4775 22.4367L10.1919 34.4741C9.53573 35.2421 9.55518 36.3788 10.2373 37.1239L13.7349 40.9443C14.0724 41.313 14.2597 41.7948 14.2597 42.2948V47.0881C14.2597 48.9464 11.9464 49.8002 10.7392 48.3873L1.11015 37.1183C0.470848 36.3701 0.470849 35.268 1.11015 34.5198L1.39119 34.1909L4.17357 30.9346L7.99934 26.4573L12.8685 20.7588L19.4766 13.0251L24.3458 7.32662L28.5194 2.44221C29.2349 1.60476 30.6062 2.1108 30.6062 3.21233V21.5728V53.3975C30.6062 53.8739 30.4361 54.3346 30.1267 54.6968L27.5185 57.7491C26.3113 59.1619 23.998 58.3082 23.998 56.4499V23.7359Z" fill="url(#paint1_linear_43_250)"/>
<defs>
<linearGradient id="paint0_linear_43_250" x1="30.8395" y1="85" x2="30.8395" y2="23.1307" gradientUnits="userSpaceOnUse">
<stop stop-color="#F2C561"/>
<stop offset="1" stop-color="#B57927"/>
</linearGradient>
<linearGradient id="paint1_linear_43_250" x1="15.3031" y1="0" x2="15.3031" y2="61.8693" gradientUnits="userSpaceOnUse">
<stop stop-color="#F2C561"/>
<stop offset="1" stop-color="#B57927"/>
</linearGradient>
</defs>
</svg>
