<svg width="32" height="34" viewBox="0 0 32 34" fill="none" xmlns="http://www.w3.org/2000/svg">
<path d="M2 32.5H30" stroke="white" stroke-width="3" stroke-linecap="round"/>
<path d="M17.5 2C17.5 1.17157 16.8284 0.5 16 0.5C15.1716 0.5 14.5 1.17157 14.5 2H17.5ZM14.9393 28.0607C15.5251 28.6464 16.4749 28.6464 17.0607 28.0607L26.6066 18.5147C27.1924 17.9289 27.1924 16.9792 26.6066 16.3934C26.0208 15.8076 25.0711 15.8076 24.4853 16.3934L16 24.8787L7.51472 16.3934C6.92893 15.8076 5.97919 15.8076 5.3934 16.3934C4.80761 16.9792 4.80761 17.9289 5.3934 18.5147L14.9393 28.0607ZM14.5 2L14.5 27H17.5V2H14.5Z" fill="white"/>
</svg>
