<svg width="430" height="110" viewBox="0 0 430 110" fill="none" xmlns="http://www.w3.org/2000/svg">
<rect width="430" height="110" rx="5" fill="url(#paint0_linear_129_781)"/>
<path d="M62.8522 35.0177C61.5731 35.1022 59.9969 35.343 59.8092 35.4837C59.6185 35.6213 59.6216 35.5963 59.6216 37.1068L59.6185 38.4921L59.5496 38.5203C59.5121 38.5328 59.2432 38.6172 58.9492 38.7079C58.355 38.8893 57.7514 39.1082 57.2134 39.3428C56.7881 39.5241 55.8999 39.9651 55.6341 40.1246L55.4464 40.2372L54.4769 39.274C53.9453 38.7423 53.4762 38.292 53.4386 38.2732C53.3448 38.2263 53.1353 38.2295 53.0133 38.2826C52.8851 38.3358 52.2127 38.8174 51.7248 39.2052C50.4926 40.1809 49.1697 41.5037 48.2033 42.7265C47.6216 43.4614 47.2744 43.968 47.2369 44.1338C47.1806 44.3777 47.2056 44.409 48.2533 45.4629L49.2353 46.4479L49.1228 46.6356C48.9633 46.9045 48.5223 47.7927 48.3409 48.2149C48.1063 48.7527 47.8874 49.3563 47.706 49.9505C47.6153 50.2413 47.5309 50.5134 47.5184 50.5509L47.4902 50.6197L46.1048 50.6229C44.588 50.6229 44.6224 50.6197 44.4754 50.8168C44.369 50.9606 44.1689 52.149 44.0563 53.2967C43.9812 54.0848 43.9812 55.9173 44.0563 56.7054C44.1689 57.8531 44.369 59.0446 44.4785 59.1885C44.6224 59.3824 44.5911 59.3792 46.1048 59.3792L47.4902 59.3824L47.5184 59.4512C47.5309 59.4887 47.6153 59.7576 47.706 60.0516C47.8874 60.6458 48.1063 61.2494 48.3409 61.7872C48.5223 62.2126 48.9633 63.1007 49.1228 63.3665L49.2353 63.5542L48.2721 64.5236C47.7404 65.0553 47.2901 65.5243 47.2713 65.5619C47.2244 65.6557 47.2275 65.8652 47.2807 65.9872C47.3339 66.1154 47.8155 66.7878 48.2033 67.2756C49.179 68.5078 50.502 69.8306 51.7248 70.7969C52.4597 71.3786 52.9664 71.7257 53.1321 71.7633C53.3761 71.8196 53.4073 71.7945 54.4613 70.7469L55.4464 69.7649L55.6341 69.8775C55.903 70.037 56.7912 70.478 57.2134 70.6593C57.7514 70.8939 58.355 71.1128 58.9492 71.2942C59.2432 71.3849 59.5121 71.4693 59.5496 71.4818L59.6185 71.51L59.6216 72.8953C59.6216 74.4121 59.6185 74.3777 59.8155 74.5247C59.9593 74.631 61.1478 74.8311 62.2955 74.9437C63.0837 75.0188 64.9163 75.0188 65.7045 74.9437C66.8522 74.8311 68.0438 74.631 68.1876 74.5215C68.3815 74.3777 68.3784 74.4089 68.3784 72.8953L68.3815 71.51L68.4504 71.4818C68.4879 71.4693 68.76 71.3849 69.0508 71.2942C69.645 71.1128 70.2486 70.8939 70.7866 70.6593C71.2119 70.478 72.1001 70.037 72.3659 69.8775L72.5536 69.7649L73.5231 70.7281C74.0579 71.2598 74.5238 71.7101 74.5614 71.7289C74.6552 71.7758 74.8647 71.7726 74.9867 71.7195C75.1149 71.6663 75.7873 71.1847 76.2752 70.7969C77.5074 69.8212 78.8303 68.4984 79.7967 67.2756C80.3784 66.5407 80.7256 66.0341 80.7631 65.8683C80.8194 65.6244 80.7944 65.5931 79.7467 64.5393L78.7647 63.5542L78.8772 63.3665C79.0367 63.0976 79.4777 62.2094 79.6591 61.7872C79.8937 61.2494 80.1126 60.6458 80.294 60.0516C80.3847 59.7576 80.4691 59.4887 80.4816 59.4512L80.5098 59.3824L81.8952 59.3792C83.412 59.3792 83.3776 59.3824 83.5246 59.1854C83.631 59.0415 83.8311 57.8531 83.9437 56.7054C84.0188 55.9173 84.0188 54.0848 83.9437 53.2967C83.8311 52.149 83.631 50.9575 83.5215 50.8136C83.3776 50.6197 83.4089 50.6229 81.8952 50.6229L80.5098 50.6197L80.4816 50.5509C80.4691 50.5134 80.3847 50.2413 80.294 49.9505C80.1126 49.3563 79.8937 48.7527 79.6591 48.2149C79.4777 47.7895 79.0367 46.9014 78.8772 46.6356L78.7647 46.4479L79.7279 45.4785C80.2596 44.9437 80.7099 44.4778 80.7287 44.4402C80.7756 44.3464 80.7725 44.1369 80.7193 44.0149C80.6661 43.8867 80.1845 43.2143 79.7967 42.7265C78.821 41.4943 77.498 40.1715 76.2752 39.2052C75.5403 38.6235 75.0336 38.2764 74.8679 38.2388C74.6239 38.1825 74.5927 38.2076 73.5387 39.2552L72.5536 40.2372L72.3659 40.1246C72.097 39.9651 71.2088 39.5241 70.7866 39.3428C70.2486 39.1082 69.645 38.8893 69.0508 38.7079C68.76 38.6172 68.4879 38.5328 68.4504 38.5203L68.3815 38.4921L68.3784 37.1068C68.3784 35.59 68.3815 35.6244 68.1845 35.4774C68.0407 35.3711 66.8335 35.1678 65.7357 35.0646C65.1102 35.0052 63.4433 34.9802 62.8522 35.0177ZM64.9163 45.7787C68.097 46.0664 70.9679 48.0835 72.369 51.0138C72.9007 52.124 73.1853 53.2498 73.2541 54.5101C73.3823 56.8211 72.6474 59.0665 71.165 60.8803C69.6919 62.6879 67.5841 63.8606 65.2197 64.1953C64.5692 64.2859 63.4308 64.2859 62.7803 64.1953C60.7162 63.9044 58.896 63.0006 57.448 61.5527C56 60.1048 55.0962 58.2847 54.8053 56.2207C54.7146 55.5702 54.7146 54.4319 54.8053 53.7814C55.14 51.4172 56.3127 49.3094 58.1204 47.8365C60.0563 46.2572 62.3862 45.5504 64.9163 45.7787Z" fill="black"/>
<path d="M100.045 46V21.5H110.65C112.843 21.5 114.733 21.8617 116.32 22.585C117.907 23.285 119.132 24.3 119.995 25.63C120.858 26.96 121.29 28.5467 121.29 30.39C121.29 32.21 120.858 33.785 119.995 35.115C119.132 36.445 117.907 37.4717 116.32 38.195C114.733 38.895 112.843 39.245 110.65 39.245H103.195L105.715 36.69V46H100.045ZM105.715 37.32L103.195 34.625H110.335C112.085 34.625 113.392 34.2517 114.255 33.505C115.118 32.7583 115.55 31.72 115.55 30.39C115.55 29.0367 115.118 27.9867 114.255 27.24C113.392 26.4933 112.085 26.12 110.335 26.12H103.195L105.715 23.425V37.32ZM133.781 46.28C131.635 46.28 129.745 45.86 128.111 45.02C126.501 44.18 125.253 43.0367 124.366 41.59C123.48 40.12 123.036 38.4517 123.036 36.585C123.036 34.695 123.468 33.0267 124.331 31.58C125.218 30.11 126.42 28.9667 127.936 28.15C129.453 27.31 131.168 26.89 133.081 26.89C134.925 26.89 136.581 27.2867 138.051 28.08C139.545 28.85 140.723 29.97 141.586 31.44C142.45 32.8867 142.881 34.625 142.881 36.655C142.881 36.865 142.87 37.11 142.846 37.39C142.823 37.6467 142.8 37.8917 142.776 38.125H127.481V34.94H139.906L137.806 35.885C137.806 34.905 137.608 34.0533 137.211 33.33C136.815 32.6067 136.266 32.0467 135.566 31.65C134.866 31.23 134.05 31.02 133.116 31.02C132.183 31.02 131.355 31.23 130.631 31.65C129.931 32.0467 129.383 32.6183 128.986 33.365C128.59 34.0883 128.391 34.9517 128.391 35.955V36.795C128.391 37.8217 128.613 38.7317 129.056 39.525C129.523 40.295 130.165 40.89 130.981 41.31C131.821 41.7067 132.801 41.905 133.921 41.905C134.925 41.905 135.8 41.7533 136.546 41.45C137.316 41.1467 138.016 40.6917 138.646 40.085L141.551 43.235C140.688 44.215 139.603 44.9733 138.296 45.51C136.99 46.0233 135.485 46.28 133.781 46.28ZM159.846 43.55V31.65H153.686L153.581 34.065C153.534 35.0683 153.476 36.025 153.406 36.935C153.336 37.845 153.196 38.6733 152.986 39.42C152.799 40.1433 152.519 40.7617 152.146 41.275C151.772 41.765 151.271 42.1033 150.641 42.29L145.251 41.52C145.927 41.52 146.476 41.3217 146.896 40.925C147.316 40.505 147.642 39.9333 147.876 39.21C148.109 38.4633 148.284 37.6233 148.401 36.69C148.517 35.7333 148.599 34.73 148.646 33.68L148.891 27.17H165.306V43.55H159.846ZM144.621 50.06V41.52H168.001V50.06H162.926V46H149.696V50.06H144.621ZM182.707 46V42.325L182.357 41.52V34.94C182.357 33.7733 181.995 32.8633 181.272 32.21C180.572 31.5567 179.487 31.23 178.017 31.23C177.013 31.23 176.022 31.3933 175.042 31.72C174.085 32.0233 173.268 32.4433 172.592 32.98L170.632 29.165C171.658 28.4417 172.895 27.8817 174.342 27.485C175.788 27.0883 177.258 26.89 178.752 26.89C181.622 26.89 183.85 27.5667 185.437 28.92C187.023 30.2733 187.817 32.385 187.817 35.255V46H182.707ZM176.967 46.28C175.497 46.28 174.237 46.035 173.187 45.545C172.137 45.0317 171.332 44.3433 170.772 43.48C170.212 42.6167 169.932 41.6483 169.932 40.575C169.932 39.455 170.2 38.475 170.737 37.635C171.297 36.795 172.172 36.1417 173.362 35.675C174.552 35.185 176.103 34.94 178.017 34.94H183.022V38.125H178.612C177.328 38.125 176.442 38.335 175.952 38.755C175.485 39.175 175.252 39.7 175.252 40.33C175.252 41.03 175.52 41.59 176.057 42.01C176.617 42.4067 177.375 42.605 178.332 42.605C179.242 42.605 180.058 42.395 180.782 41.975C181.505 41.5317 182.03 40.89 182.357 40.05L183.197 42.57C182.8 43.7833 182.077 44.705 181.027 45.335C179.977 45.965 178.623 46.28 176.967 46.28ZM205.895 46L199.595 37.075L204.04 34.45L212.335 46H205.895ZM192.56 46V27.17H198.02V46H192.56ZM196.41 38.86V34.485H202.99V38.86H196.41ZM204.565 37.215L199.455 36.655L206.07 27.17H211.88L204.565 37.215ZM218.87 46V30.39L220.095 31.65H212.5V27.17H230.665V31.65H223.07L224.295 30.39V46H218.87ZM233.575 46V27.17H239V38.37L248.17 27.17H253.175V46H247.75V34.8L238.615 46H233.575ZM269.519 46.28C267.932 46.28 266.544 45.93 265.354 45.23C264.164 44.53 263.23 43.4683 262.554 42.045C261.9 40.5983 261.574 38.7783 261.574 36.585C261.574 34.3683 261.889 32.5483 262.519 31.125C263.149 29.7017 264.059 28.64 265.249 27.94C266.439 27.24 267.862 26.89 269.519 26.89C271.292 26.89 272.879 27.2983 274.279 28.115C275.702 28.9083 276.822 30.0283 277.639 31.475C278.479 32.9217 278.899 34.625 278.899 36.585C278.899 38.5683 278.479 40.2833 277.639 41.73C276.822 43.1767 275.702 44.2967 274.279 45.09C272.879 45.8833 271.292 46.28 269.519 46.28ZM258.389 52.79V27.17H263.604V31.02L263.499 36.62L263.849 42.185V52.79H258.389ZM268.574 41.8C269.484 41.8 270.289 41.59 270.989 41.17C271.712 40.75 272.284 40.155 272.704 39.385C273.147 38.5917 273.369 37.6583 273.369 36.585C273.369 35.4883 273.147 34.555 272.704 33.785C272.284 33.015 271.712 32.42 270.989 32C270.289 31.58 269.484 31.37 268.574 31.37C267.664 31.37 266.847 31.58 266.124 32C265.4 32.42 264.829 33.015 264.409 33.785C263.989 34.555 263.779 35.4883 263.779 36.585C263.779 37.6583 263.989 38.5917 264.409 39.385C264.829 40.155 265.4 40.75 266.124 41.17C266.847 41.59 267.664 41.8 268.574 41.8ZM291.546 46.28C289.539 46.28 287.754 45.86 286.191 45.02C284.651 44.18 283.426 43.0367 282.516 41.59C281.629 40.12 281.186 38.4517 281.186 36.585C281.186 34.695 281.629 33.0267 282.516 31.58C283.426 30.11 284.651 28.9667 286.191 28.15C287.754 27.31 289.539 26.89 291.546 26.89C293.529 26.89 295.302 27.31 296.866 28.15C298.429 28.9667 299.654 30.0983 300.541 31.545C301.427 32.9917 301.871 34.6717 301.871 36.585C301.871 38.4517 301.427 40.12 300.541 41.59C299.654 43.0367 298.429 44.18 296.866 45.02C295.302 45.86 293.529 46.28 291.546 46.28ZM291.546 41.8C292.456 41.8 293.272 41.59 293.996 41.17C294.719 40.75 295.291 40.155 295.711 39.385C296.131 38.5917 296.341 37.6583 296.341 36.585C296.341 35.4883 296.131 34.555 295.711 33.785C295.291 33.015 294.719 32.42 293.996 32C293.272 31.58 292.456 31.37 291.546 31.37C290.636 31.37 289.819 31.58 289.096 32C288.372 32.42 287.789 33.015 287.346 33.785C286.926 34.555 286.716 35.4883 286.716 36.585C286.716 37.6583 286.926 38.5917 287.346 39.385C287.789 40.155 288.372 40.75 289.096 41.17C289.819 41.59 290.636 41.8 291.546 41.8ZM305.626 46V27.17H315.251C317.608 27.17 319.451 27.6017 320.781 28.465C322.111 29.305 322.776 30.495 322.776 32.035C322.776 33.575 322.146 34.7883 320.886 35.675C319.649 36.5383 318.004 36.97 315.951 36.97L316.511 35.71C318.798 35.71 320.501 36.13 321.621 36.97C322.764 37.81 323.336 39.035 323.336 40.645C323.336 42.3017 322.706 43.6083 321.446 44.565C320.186 45.5217 318.261 46 315.671 46H305.626ZM310.631 42.29H315.216C316.219 42.29 316.966 42.1267 317.456 41.8C317.969 41.45 318.226 40.925 318.226 40.225C318.226 39.5017 317.993 38.9767 317.526 38.65C317.059 38.3 316.324 38.125 315.321 38.125H310.631V42.29ZM310.631 34.905H314.761C315.718 34.905 316.429 34.73 316.896 34.38C317.386 34.03 317.631 33.5283 317.631 32.875C317.631 32.1983 317.386 31.6967 316.896 31.37C316.429 31.0433 315.718 30.88 314.761 30.88H310.631V34.905ZM338.668 46V42.325L338.318 41.52V34.94C338.318 33.7733 337.957 32.8633 337.233 32.21C336.533 31.5567 335.448 31.23 333.978 31.23C332.975 31.23 331.983 31.3933 331.003 31.72C330.047 32.0233 329.23 32.4433 328.553 32.98L326.593 29.165C327.62 28.4417 328.857 27.8817 330.303 27.485C331.75 27.0883 333.22 26.89 334.713 26.89C337.583 26.89 339.812 27.5667 341.398 28.92C342.985 30.2733 343.778 32.385 343.778 35.255V46H338.668ZM332.928 46.28C331.458 46.28 330.198 46.035 329.148 45.545C328.098 45.0317 327.293 44.3433 326.733 43.48C326.173 42.6167 325.893 41.6483 325.893 40.575C325.893 39.455 326.162 38.475 326.698 37.635C327.258 36.795 328.133 36.1417 329.323 35.675C330.513 35.185 332.065 34.94 333.978 34.94H338.983V38.125H334.573C333.29 38.125 332.403 38.335 331.913 38.755C331.447 39.175 331.213 39.7 331.213 40.33C331.213 41.03 331.482 41.59 332.018 42.01C332.578 42.4067 333.337 42.605 334.293 42.605C335.203 42.605 336.02 42.395 336.743 41.975C337.467 41.5317 337.992 40.89 338.318 40.05L339.158 42.57C338.762 43.7833 338.038 44.705 336.988 45.335C335.938 45.965 334.585 46.28 332.928 46.28ZM352.546 46V30.39L353.771 31.65H346.176V27.17H364.341V31.65H356.746L357.971 30.39V46H352.546ZM377.437 33.19C379.91 33.2133 381.789 33.7733 383.072 34.87C384.379 35.9433 385.032 37.4717 385.032 39.455C385.032 41.5317 384.297 43.1533 382.827 44.32C381.357 45.4633 379.315 46.035 376.702 46.035L367.252 46V27.17H372.677V33.19H377.437ZM376.212 42.15C377.262 42.1733 378.067 41.9517 378.627 41.485C379.187 41.0183 379.467 40.3183 379.467 39.385C379.467 38.4517 379.187 37.7867 378.627 37.39C378.067 36.97 377.262 36.7483 376.212 36.725L372.677 36.69V42.15H376.212ZM99.625 89V70.17H118.35V89H112.89V73.425L114.115 74.65H103.825L105.05 73.425V89H99.625ZM134.68 89.28C133.093 89.28 131.705 88.93 130.515 88.23C129.325 87.53 128.392 86.4683 127.715 85.045C127.062 83.5983 126.735 81.7783 126.735 79.585C126.735 77.3683 127.05 75.5483 127.68 74.125C128.31 72.7017 129.22 71.64 130.41 70.94C131.6 70.24 133.023 69.89 134.68 69.89C136.453 69.89 138.04 70.2983 139.44 71.115C140.863 71.9083 141.983 73.0283 142.8 74.475C143.64 75.9217 144.06 77.625 144.06 79.585C144.06 81.5683 143.64 83.2833 142.8 84.73C141.983 86.1767 140.863 87.2967 139.44 88.09C138.04 88.8833 136.453 89.28 134.68 89.28ZM123.55 95.79V70.17H128.765V74.02L128.66 79.62L129.01 85.185V95.79H123.55ZM133.735 84.8C134.645 84.8 135.45 84.59 136.15 84.17C136.873 83.75 137.445 83.155 137.865 82.385C138.308 81.5917 138.53 80.6583 138.53 79.585C138.53 78.4883 138.308 77.555 137.865 76.785C137.445 76.015 136.873 75.42 136.15 75C135.45 74.58 134.645 74.37 133.735 74.37C132.825 74.37 132.008 74.58 131.285 75C130.562 75.42 129.99 76.015 129.57 76.785C129.15 77.555 128.94 78.4883 128.94 79.585C128.94 80.6583 129.15 81.5917 129.57 82.385C129.99 83.155 130.562 83.75 131.285 84.17C132.008 84.59 132.825 84.8 133.735 84.8ZM156.707 89.28C154.7 89.28 152.915 88.86 151.352 88.02C149.812 87.18 148.587 86.0367 147.677 84.59C146.79 83.12 146.347 81.4517 146.347 79.585C146.347 77.695 146.79 76.0267 147.677 74.58C148.587 73.11 149.812 71.9667 151.352 71.15C152.915 70.31 154.7 69.89 156.707 69.89C158.69 69.89 160.463 70.31 162.027 71.15C163.59 71.9667 164.815 73.0983 165.702 74.545C166.588 75.9917 167.032 77.6717 167.032 79.585C167.032 81.4517 166.588 83.12 165.702 84.59C164.815 86.0367 163.59 87.18 162.027 88.02C160.463 88.86 158.69 89.28 156.707 89.28ZM156.707 84.8C157.617 84.8 158.433 84.59 159.157 84.17C159.88 83.75 160.452 83.155 160.872 82.385C161.292 81.5917 161.502 80.6583 161.502 79.585C161.502 78.4883 161.292 77.555 160.872 76.785C160.452 76.015 159.88 75.42 159.157 75C158.433 74.58 157.617 74.37 156.707 74.37C155.797 74.37 154.98 74.58 154.257 75C153.533 75.42 152.95 76.015 152.507 76.785C152.087 77.555 151.877 78.4883 151.877 79.585C151.877 80.6583 152.087 81.5917 152.507 82.385C152.95 83.155 153.533 83.75 154.257 84.17C154.98 84.59 155.797 84.8 156.707 84.8ZM183.457 89.42C183.41 89.42 183.282 89.42 183.072 89.42C182.862 89.42 182.664 89.42 182.477 89.42C182.29 89.42 182.162 89.42 182.092 89.42C178.009 89.35 174.847 88.475 172.607 86.795C170.367 85.115 169.247 82.6883 169.247 79.515C169.247 76.3883 170.355 74.0083 172.572 72.375C174.812 70.7183 178.02 69.8783 182.197 69.855C182.244 69.855 182.36 69.855 182.547 69.855C182.757 69.855 182.955 69.855 183.142 69.855C183.329 69.855 183.445 69.855 183.492 69.855C187.715 69.855 190.982 70.6717 193.292 72.305C195.625 73.9383 196.792 76.3417 196.792 79.515C196.792 82.735 195.625 85.1967 193.292 86.9C190.982 88.58 187.704 89.42 183.457 89.42ZM183.282 85.22C185.219 85.22 186.794 85.0217 188.007 84.625C189.22 84.205 190.107 83.575 190.667 82.735C191.25 81.8717 191.542 80.7983 191.542 79.515C191.542 78.2783 191.262 77.2633 190.702 76.47C190.142 75.6533 189.244 75.0467 188.007 74.65C186.794 74.2533 185.219 74.055 183.282 74.055C183.212 74.055 183.072 74.055 182.862 74.055C182.652 74.055 182.512 74.055 182.442 74.055C180.575 74.055 179.059 74.265 177.892 74.685C176.725 75.105 175.874 75.7117 175.337 76.505C174.8 77.2983 174.532 78.3017 174.532 79.515C174.532 80.775 174.8 81.825 175.337 82.665C175.874 83.505 176.725 84.135 177.892 84.555C179.059 84.975 180.575 85.1967 182.442 85.22C182.512 85.22 182.652 85.22 182.862 85.22C183.072 85.22 183.212 85.22 183.282 85.22ZM180.517 95.79V63.03H185.522V95.79H180.517ZM200.489 89V70.17H205.914V81.37L215.084 70.17H220.089V89H214.664V77.8L205.529 89H200.489ZM222.958 88.965L223.238 84.485C223.378 84.5083 223.518 84.5317 223.658 84.555C223.798 84.555 223.926 84.555 224.043 84.555C224.696 84.555 225.21 84.3683 225.583 83.995C225.956 83.6217 226.236 83.12 226.423 82.49C226.61 81.8367 226.738 81.1017 226.808 80.285C226.901 79.4683 226.971 78.6167 227.018 77.73L227.298 70.17H243.398V89H237.938V73.32L239.163 74.65H230.903L232.058 73.25L231.813 77.975C231.743 79.655 231.603 81.195 231.393 82.595C231.206 83.995 230.891 85.2083 230.448 86.235C230.005 87.2383 229.41 88.02 228.663 88.58C227.916 89.1167 226.96 89.385 225.793 89.385C225.373 89.385 224.93 89.35 224.463 89.28C223.996 89.21 223.495 89.105 222.958 88.965ZM258.833 76.19C261.307 76.2133 263.185 76.7733 264.468 77.87C265.775 78.9433 266.428 80.4717 266.428 82.455C266.428 84.5317 265.693 86.1533 264.223 87.32C262.753 88.4633 260.712 89.035 258.098 89.035L248.648 89V70.17H254.073V76.19H258.833ZM257.608 85.15C258.658 85.1733 259.463 84.9517 260.023 84.485C260.583 84.0183 260.863 83.3183 260.863 82.385C260.863 81.4517 260.583 80.7867 260.023 80.39C259.463 79.97 258.658 79.7483 257.608 79.725L254.073 79.69V85.15H257.608Z" fill="black"/>
<defs>
<linearGradient id="paint0_linear_129_781" x1="215" y1="0" x2="215" y2="110" gradientUnits="userSpaceOnUse">
<stop stop-color="#C19F55"/>
<stop offset="1" stop-color="#B57A28"/>
</linearGradient>
</defs>
</svg>
