<svg width="190" height="34" viewBox="0 0 190 34" fill="none" xmlns="http://www.w3.org/2000/svg">
<path d="M17.06 33.07C14.6333 33.07 12.4167 32.6733 10.41 31.88C8.40333 31.0867 6.67667 29.9783 5.23 28.555C3.78333 27.1317 2.66333 25.4517 1.87 23.515C1.07667 21.555 0.68 19.42 0.68 17.11C0.68 14.8 1.07667 12.6767 1.87 10.74C2.66333 8.80333 3.78333 7.12333 5.23 5.7C6.7 4.27667 8.45 3.18 10.48 2.41C12.51 1.64 14.75 1.255 17.2 1.255C19.6033 1.255 21.7967 1.62833 23.78 2.375C25.7633 3.12167 27.4783 4.18333 28.925 5.56C30.395 6.91333 31.5267 8.535 32.32 10.425C33.1133 12.2917 33.51 14.3567 33.51 16.62C33.51 18.6033 33.265 20.3067 32.775 21.73C32.285 23.1533 31.5733 24.2617 30.64 25.055C29.73 25.825 28.61 26.21 27.28 26.21C25.9733 26.21 24.9233 25.8133 24.13 25.02C23.36 24.2267 22.975 23.095 22.975 21.625V19.245L23.15 17.11L22.835 13.085V8.43H25.88V21.03C25.88 21.9633 26.0667 22.6167 26.44 22.99C26.8367 23.3633 27.315 23.55 27.875 23.55C28.5517 23.55 29.135 23.2817 29.625 22.745C30.1383 22.2083 30.5117 21.4267 30.745 20.4C31.0017 19.35 31.13 18.1017 31.13 16.655C31.13 14.695 30.7917 12.9217 30.115 11.335C29.4617 9.725 28.505 8.33667 27.245 7.17C26.0083 6.00333 24.5383 5.11667 22.835 4.51C21.155 3.88 19.2767 3.565 17.2 3.565C15.1233 3.565 13.2217 3.90333 11.495 4.58C9.79167 5.23333 8.32167 6.16667 7.085 7.38C5.84833 8.57 4.89167 9.99333 4.215 11.65C3.56167 13.3067 3.235 15.1267 3.235 17.11C3.235 19.1167 3.56167 20.96 4.215 22.64C4.86833 24.2967 5.80167 25.72 7.015 26.91C8.25167 28.1233 9.71 29.0567 11.39 29.71C13.0933 30.3867 14.9833 30.725 17.06 30.725C18.1333 30.725 19.265 30.5967 20.455 30.34C21.645 30.1067 22.765 29.7217 23.815 29.185L24.585 31.425C23.5117 31.9617 22.2983 32.37 20.945 32.65C19.5917 32.93 18.2967 33.07 17.06 33.07ZM16.43 26.21C14.7733 26.21 13.3033 25.825 12.02 25.055C10.7367 24.2617 9.72167 23.1883 8.975 21.835C8.22833 20.4817 7.855 18.9417 7.855 17.215C7.855 15.465 8.22833 13.925 8.975 12.595C9.72167 11.2417 10.7367 10.1917 12.02 9.445C13.3033 8.675 14.7733 8.29 16.43 8.29C18.04 8.29 19.4517 8.64 20.665 9.34C21.8783 10.0167 22.8233 11.02 23.5 12.35C24.2 13.68 24.55 15.3017 24.55 17.215C24.55 19.1283 24.2117 20.75 23.535 22.08C22.8583 23.41 21.9133 24.4367 20.7 25.16C19.4867 25.86 18.0633 26.21 16.43 26.21ZM16.92 23.48C18.0633 23.48 19.0783 23.235 19.965 22.745C20.875 22.2317 21.5867 21.5083 22.1 20.575C22.6367 19.6183 22.905 18.4983 22.905 17.215C22.905 15.9083 22.6367 14.7883 22.1 13.855C21.5867 12.9217 20.875 12.21 19.965 11.72C19.0783 11.23 18.0633 10.985 16.92 10.985C15.7533 10.985 14.715 11.2417 13.805 11.755C12.9183 12.245 12.2183 12.9567 11.705 13.89C11.215 14.8233 10.97 15.9317 10.97 17.215C10.97 18.475 11.215 19.5717 11.705 20.505C12.2183 21.4383 12.9183 22.1733 13.805 22.71C14.715 23.2233 15.7533 23.48 16.92 23.48ZM59.4357 26.28C57.569 26.28 55.8307 25.965 54.2207 25.335C52.634 24.705 51.2574 23.83 50.0907 22.71C48.924 21.5667 48.014 20.2367 47.3607 18.72C46.7074 17.2033 46.3807 15.5467 46.3807 13.75C46.3807 11.9533 46.7074 10.2967 47.3607 8.78C48.014 7.26333 48.924 5.945 50.0907 4.825C51.2574 3.68167 52.634 2.795 54.2207 2.165C55.8074 1.535 57.5457 1.22 59.4357 1.22C61.3024 1.22 63.0174 1.535 64.5807 2.165C66.1674 2.77167 67.544 3.64667 68.7107 4.79C69.9007 5.91 70.8107 7.22833 71.4407 8.745C72.094 10.2617 72.4207 11.93 72.4207 13.75C72.4207 15.57 72.094 17.2383 71.4407 18.755C70.8107 20.2717 69.9007 21.6017 68.7107 22.745C67.544 23.865 66.1674 24.74 64.5807 25.37C63.0174 25.9767 61.3024 26.28 59.4357 26.28ZM59.4357 23.165C60.789 23.165 62.0374 22.9317 63.1807 22.465C64.3474 21.9983 65.3507 21.345 66.1907 20.505C67.054 19.6417 67.719 18.6383 68.1857 17.495C68.6757 16.3517 68.9207 15.1033 68.9207 13.75C68.9207 12.3967 68.6757 11.1483 68.1857 10.005C67.719 8.86167 67.054 7.87 66.1907 7.03C65.3507 6.16666 64.3474 5.50166 63.1807 5.035C62.0374 4.56833 60.789 4.335 59.4357 4.335C58.059 4.335 56.7874 4.56833 55.6207 5.035C54.4774 5.50166 53.474 6.16666 52.6107 7.03C51.7474 7.87 51.0707 8.86167 50.5807 10.005C50.114 11.1483 49.8807 12.3967 49.8807 13.75C49.8807 15.1033 50.114 16.3517 50.5807 17.495C51.0707 18.6383 51.7474 19.6417 52.6107 20.505C53.474 21.345 54.4774 21.9983 55.6207 22.465C56.7874 22.9317 58.059 23.165 59.4357 23.165ZM98.4331 26.28C96.5664 26.28 94.8398 25.9767 93.2531 25.37C91.6898 24.74 90.3248 23.865 89.1581 22.745C88.0148 21.6017 87.1164 20.2717 86.4631 18.755C85.8098 17.2383 85.4831 15.57 85.4831 13.75C85.4831 11.93 85.8098 10.2617 86.4631 8.745C87.1164 7.22833 88.0264 5.91 89.1931 4.79C90.3598 3.64667 91.7248 2.77167 93.2881 2.165C94.8748 1.535 96.6014 1.22 98.4681 1.22C100.358 1.22 102.096 1.54667 103.683 2.2C105.293 2.83 106.658 3.775 107.778 5.035L105.503 7.24C104.57 6.26 103.52 5.53667 102.353 5.07C101.186 4.58 99.9381 4.335 98.6081 4.335C97.2314 4.335 95.9481 4.56833 94.7581 5.035C93.5914 5.50166 92.5764 6.155 91.7131 6.995C90.8498 7.835 90.1731 8.83833 89.6831 10.005C89.2164 11.1483 88.9831 12.3967 88.9831 13.75C88.9831 15.1033 89.2164 16.3633 89.6831 17.53C90.1731 18.6733 90.8498 19.665 91.7131 20.505C92.5764 21.345 93.5914 21.9983 94.7581 22.465C95.9481 22.9317 97.2314 23.165 98.6081 23.165C99.9381 23.165 101.186 22.9317 102.353 22.465C103.52 21.975 104.57 21.2283 105.503 20.225L107.778 22.43C106.658 23.69 105.293 24.6467 103.683 25.3C102.096 25.9533 100.346 26.28 98.4331 26.28ZM123.176 26V22.08L123.001 21.345V14.66C123.001 13.2367 122.581 12.14 121.741 11.37C120.924 10.5767 119.688 10.18 118.031 10.18C116.934 10.18 115.861 10.3667 114.811 10.74C113.761 11.09 112.874 11.5683 112.151 12.175L110.751 9.655C111.708 8.885 112.851 8.30167 114.181 7.905C115.534 7.485 116.946 7.275 118.416 7.275C120.959 7.275 122.919 7.89333 124.296 9.13C125.673 10.3667 126.361 12.2567 126.361 14.8V26H123.176ZM117.086 26.21C115.709 26.21 114.496 25.9767 113.446 25.51C112.419 25.0433 111.626 24.4017 111.066 23.585C110.506 22.745 110.226 21.8 110.226 20.75C110.226 19.7467 110.459 18.8367 110.926 18.02C111.416 17.2033 112.198 16.55 113.271 16.06C114.368 15.57 115.838 15.325 117.681 15.325H123.561V17.74H117.821C116.141 17.74 115.009 18.02 114.426 18.58C113.843 19.14 113.551 19.8167 113.551 20.61C113.551 21.52 113.913 22.255 114.636 22.815C115.359 23.3517 116.363 23.62 117.646 23.62C118.906 23.62 120.003 23.34 120.936 22.78C121.893 22.22 122.581 21.4033 123.001 20.33L123.666 22.64C123.223 23.7367 122.441 24.6117 121.321 25.265C120.201 25.895 118.789 26.21 117.086 26.21ZM132.411 26V7.45H135.771V20.96L147.146 7.45H150.191V26H146.831V12.49L135.491 26H132.411ZM141.091 5.035C139.388 5.035 138.046 4.62667 137.066 3.81C136.11 2.97 135.62 1.76833 135.596 0.204998H137.871C137.895 1.09166 138.186 1.79166 138.746 2.305C139.33 2.81833 140.1 3.075 141.056 3.075C142.013 3.075 142.783 2.81833 143.366 2.305C143.95 1.79166 144.253 1.09166 144.276 0.204998H146.621C146.598 1.76833 146.096 2.97 145.116 3.81C144.136 4.62667 142.795 5.035 141.091 5.035ZM160.388 26V9.515L161.228 10.39H153.598V7.45H170.538V10.39H162.943L163.748 9.515V26H160.388ZM181.413 26.21C179.43 26.21 177.68 25.8017 176.163 24.985C174.67 24.1683 173.503 23.0483 172.663 21.625C171.847 20.2017 171.438 18.5683 171.438 16.725C171.438 14.8817 171.835 13.2483 172.628 11.825C173.445 10.4017 174.553 9.29333 175.953 8.5C177.377 7.68333 178.975 7.275 180.748 7.275C182.545 7.275 184.132 7.67167 185.508 8.465C186.885 9.25833 187.958 10.3783 188.728 11.825C189.522 13.2483 189.918 14.9167 189.918 16.83C189.918 16.97 189.907 17.1333 189.883 17.32C189.883 17.5067 189.872 17.6817 189.848 17.845H174.063V15.43H188.098L186.733 16.27C186.757 15.08 186.512 14.0183 185.998 13.085C185.485 12.1517 184.773 11.4283 183.863 10.915C182.977 10.3783 181.938 10.11 180.748 10.11C179.582 10.11 178.543 10.3783 177.633 10.915C176.723 11.4283 176.012 12.1633 175.498 13.12C174.985 14.0533 174.728 15.1267 174.728 16.34V16.9C174.728 18.1367 175.008 19.245 175.568 20.225C176.152 21.1817 176.957 21.9283 177.983 22.465C179.01 23.0017 180.188 23.27 181.518 23.27C182.615 23.27 183.607 23.0833 184.493 22.71C185.403 22.3367 186.197 21.7767 186.873 21.03L188.728 23.2C187.888 24.18 186.838 24.9267 185.578 25.44C184.342 25.9533 182.953 26.21 181.413 26.21Z" fill="white"/>
</svg>
