<svg width="70" height="70" viewBox="0 0 70 70" fill="none" xmlns="http://www.w3.org/2000/svg">
<g clip-path="url(#clip0_43_270)">
<rect width="70" height="70" rx="35" fill="#333333"/>
<path d="M0 36.0208L35.35 28L70 36.0208V63C70 82.3299 54.33 98 35 98C15.67 98 0 82.33 0 63V36.0208Z" fill="url(#paint0_linear_43_270)"/>
<path d="M49 17.5C49 26.7629 42.5929 34 35 34C27.4071 34 21 26.7629 21 17.5C21 8.23713 27.4071 1 35 1C42.5929 1 49 8.23713 49 17.5Z" fill="url(#paint1_linear_43_270)" stroke="#333333" stroke-width="2"/>
</g>
<rect x="1" y="1" width="68" height="68" rx="34" stroke="#333333" stroke-width="2"/>
<defs>
<linearGradient id="paint0_linear_43_270" x1="35" y1="28" x2="35" y2="98" gradientUnits="userSpaceOnUse">
<stop stop-color="#F2C561"/>
<stop offset="1" stop-color="#B77C29"/>
</linearGradient>
<linearGradient id="paint1_linear_43_270" x1="35" y1="0" x2="35" y2="35" gradientUnits="userSpaceOnUse">
<stop stop-color="#F2C561"/>
<stop offset="1" stop-color="#B77C29"/>
</linearGradient>
<clipPath id="clip0_43_270">
<rect width="70" height="70" rx="35" fill="white"/>
</clipPath>
</defs>
</svg>
