<svg width="50" height="53" viewBox="0 0 50 53" fill="none" xmlns="http://www.w3.org/2000/svg">
<path d="M24.0741 0.0247211C23.535 0.0741024 22.7284 0.181099 22.3457 0.251059C16.642 1.33336 12.1276 5.81073 11.0082 11.4939C10.8024 12.5391 10.7654 12.9795 10.7654 14.2799C10.7654 15.5432 10.8024 15.9712 10.9917 16.9548C11.9136 21.7367 15.214 25.7367 19.7119 27.5227C21.6337 28.284 23.5638 28.605 25.679 28.5144C32.1605 28.2305 37.6749 23.5185 38.9712 17.1605C39.2016 16.0206 39.2346 15.6502 39.2346 14.2593C39.2346 12.9301 39.2057 12.5885 39.0082 11.5638C38.3621 8.23048 36.5597 5.24283 33.9012 3.12349C31.8148 1.45682 29.3662 0.436243 26.6666 0.0987949C26.1769 0.0370655 24.465 -0.0082016 24.0741 0.0247211Z" fill="#0077FF"/>
<path d="M13.7242 32.5391C9.43618 32.7078 5.48145 34.7737 2.88474 38.2017C1.53906 39.9795 0.596673 42.1317 0.226302 44.2799C0.0287714 45.4239 0.0287714 45.4033 0.0123105 49.1235L-0.00415039 52.6749H25H50.0041L49.9876 49.1235C49.9712 45.3539 49.9712 45.3786 49.7572 44.1893C49.1522 40.8766 47.3292 37.8231 44.6707 35.6832C43.2222 34.5185 41.5926 33.6585 39.8354 33.1317C38.2551 32.6585 37.0329 32.5103 34.6461 32.5103H33.4279L33.3415 32.749C33.2181 33.0823 32.8765 33.6379 32.5926 33.9671C31.4074 35.3375 29.3744 36.1605 26.5226 36.4198C25.8847 36.4774 24.1152 36.4774 23.4773 36.4198C20.214 36.1235 17.9917 35.0741 16.9588 33.3416C16.8436 33.1441 16.7078 32.8766 16.6584 32.749L16.572 32.5103L15.2921 32.5185C14.5884 32.5227 13.8847 32.5309 13.7242 32.5391Z" fill="#0077FF"/>
</svg>
