<svg width="50" height="50" viewBox="0 0 50 50" fill="none" xmlns="http://www.w3.org/2000/svg">
<path d="M0 24C0 12.6862 0 7.02944 3.51472 3.51472C7.02944 0 12.6862 0 24 0H26C37.3137 0 42.9705 0 46.4853 3.51472C50 7.02944 50 12.6862 50 24V26C50 37.3137 50 42.9705 46.4853 46.4853C42.9705 50 37.3137 50 26 50H24C12.6862 50 7.02944 50 3.51472 46.4853C0 42.9705 0 37.3137 0 26V24Z" fill="white"/>
<path d="M26.6042 36.021C15.2084 36.021 8.70849 28.2085 8.43765 15.2085H14.146C14.3335 24.7501 18.5417 28.7918 21.875 29.6251V15.2085H27.2503V23.4376C30.5419 23.0835 33.9998 19.3335 35.1665 15.2085H40.5416C39.6458 20.2918 35.8958 24.0418 33.2291 25.5835C35.8958 26.8335 40.1668 30.1043 41.7918 36.021H35.8749C34.6041 32.0626 31.4378 29.0001 27.2503 28.5835V36.021H26.6042Z" fill="#0077FF"/>
</svg>
